<svg preserveAspectRatio="xMidYMid slice" xmlns="http://www.w3.org/2000/svg" viewBox="0 0 400 267"><filter id="b"><feGaussianBlur stdDeviation="12" /></filter><path fill="#bab0a8" d="M0 0h400v265H0z"/><g filter="url(#b)" transform="translate(.8 .8) scale(1.5625)" fill-opacity=".5"><ellipse fill="#7e3e0f" rx="1" ry="1" transform="matrix(-71.28759 -53.34106 24.17785 -32.31246 116.9 98.4)"/><ellipse fill="#f1ffff" rx="1" ry="1" transform="rotate(87.9 -44 51.3) scale(171.24755 29.96417)"/><ellipse fill="#fdffff" cx="175" cy="12" rx="86" ry="23"/><ellipse fill="#def5ff" cx="255" cy="108" rx="62" ry="62"/><path fill="#1e2700" d="M53 0h29v51H53z"/><path fill="#554a2e" d="M213.1 27.5l1 56.5-32.6-24 6.8-37.4z"/><ellipse fill="#8d4800" rx="1" ry="1" transform="matrix(-15.64151 40.05558 -22.41843 -8.75429 125.3 81.5)"/><ellipse fill="#edf9ff" rx="1" ry="1" transform="matrix(-17.19654 24.83496 -13.6224 -9.4326 110.2 33.7)"/></g></svg>