<svg preserveAspectRatio="xMidYMid slice" xmlns="http://www.w3.org/2000/svg" viewBox="0 0 400 104"><filter id="b"><feGaussianBlur stdDeviation="12" /></filter><path fill="#c5b6d8" d="M0 0h400v103H0z"/><g filter="url(#b)" transform="translate(.8 .8) scale(1.5625)" fill-opacity=".5"><path fill="#8052c0" d="M131 8h112v29H131z"/><path fill="#723cba" d="M105 13.3l-4.3 9.4-104 8.7-10.8-25.7z"/><ellipse fill="#eff3ea" cx="121" cy="56" rx="249" ry="19"/><path fill="#3600a3" d="M127.4 37L96 42.2l31.9 2 32.8-42.7z"/><path fill="#3200a1" d="M124.9 1l-19.2 2.8 24.3 7.1 9.3 1.9z"/><path fill="#1d0099" d="M84 11h6v27h-6z"/><path fill="#ffffef" d="M174.6-.9L271 10.6 185.2-16l-15.4 78.3z"/><path fill="#3600a2" d="M99.3 19.2L112 41.9l-5.2 3L94 22z"/></g></svg>